<?xml version="1.0" encoding="UTF-8" standalone="yes"?>
<svg xmlns="http://www.w3.org/2000/svg" viewBox="0 0 50 50" width="50" height="50" fill="#000000">
  <path d="M 25 0 C 21.691406 0 19 2.691406 19 6 C 19 9.308594 21.691406 12 25 12 C 28.308594 12 31 9.308594 31 6 C 31 2.691406 28.308594 0 25 0 Z M 25.03125 13 C 15.285156 13 15 18.75 15 19.40625 L 15 29.1875 C 15 30.730469 16.269531 32 17.8125 32 L 19 32 L 19 22 C 19 21.722656 19.222656 21.5 19.5 21.5 C 19.777344 21.5 20 21.722656 20 22 L 20 43.34375 C 20 44.816406 21.183594 46 22.65625 46 L 27.34375 46 C 28.816406 46 30 44.816406 30 43.34375 L 30 22 C 30 21.722656 30.226563 21.5 30.5 21.5 C 30.773438 21.5 31 21.722656 31 22 L 31 32 L 32.1875 32 C 33.730469 32 35 30.730469 35 29.1875 L 35 19.40625 C 35 18.335938 34.523438 13 25.03125 13 Z M 16.84375 36.5625 C 13.527344 37.050781 10.707031 37.835938 8.625 38.84375 C 7.582031 39.347656 6.738281 39.886719 6.09375 40.5625 C 5.449219 41.238281 5 42.085938 5 43 C 5 44.257813 5.804688 45.300781 6.90625 46.125 C 8.007813 46.949219 9.460938 47.621094 11.25 48.1875 C 14.828125 49.316406 19.667969 50 25 50 C 30.332031 50 35.171875 49.316406 38.75 48.1875 C 40.539063 47.621094 41.992188 46.945313 43.09375 46.125 C 44.195313 45.304688 45 44.257813 45 43 C 45 42.085938 44.550781 41.238281 43.90625 40.5625 C 43.261719 39.886719 42.417969 39.347656 41.375 38.84375 C 39.292969 37.835938 36.472656 37.050781 33.15625 36.5625 C 32.605469 36.476563 32.085938 36.855469 32 37.40625 C 31.914063 37.957031 32.292969 38.476563 32.84375 38.5625 C 36.019531 39.03125 38.707031 39.757813 40.5 40.625 C 41.398438 41.058594 42.066406 41.546875 42.46875 41.96875 C 42.871094 42.390625 43 42.710938 43 43 C 43 43.398438 42.726563 43.917969 41.90625 44.53125 C 41.085938 45.144531 39.773438 45.761719 38.125 46.28125 C 34.828125 47.324219 30.164063 48 25 48 C 19.835938 48 15.171875 47.324219 11.875 46.28125 C 10.226563 45.761719 8.914063 45.144531 8.09375 44.53125 C 7.273438 43.917969 7 43.402344 7 43 C 7 42.710938 7.128906 42.390625 7.53125 41.96875 C 7.933594 41.546875 8.601563 41.058594 9.5 40.625 C 11.292969 39.757813 13.980469 39.03125 17.15625 38.5625 C 17.707031 38.476563 18.085938 37.957031 18 37.40625 C 17.914063 36.855469 17.394531 36.476563 16.84375 36.5625 Z"/>
</svg>
